<svg width="1113" height="775" viewBox="0 0 1113 775" fill="none" xmlns="http://www.w3.org/2000/svg">
<path d="M1094.12 89.1761C1131.44 156.469 1105.51 250.871 1032.69 349.346C959.931 447.741 840.579 549.856 691.867 632.317C543.155 714.777 393.324 761.924 271.325 771.523C149.228 781.129 55.424 753.117 18.1099 685.824C-19.2041 618.53 6.72132 524.129 79.5411 425.654C152.303 327.258 271.654 225.144 420.366 142.683C569.078 60.2226 718.909 13.076 840.909 3.47719C963.006 -6.12931 1056.81 21.8827 1094.12 89.1761Z" stroke="#2E51A9" stroke-width="2"/>
<path d="M1010.1 97.9264C1044.46 156.282 1024.06 239.822 962.575 327.979C901.141 416.057 798.909 508.393 670.422 584.06C541.935 659.727 411.604 704.348 304.784 715.357C197.867 726.375 114.915 703.699 80.5495 645.343C46.1837 586.988 66.584 503.447 128.073 415.291C189.507 327.213 291.739 234.877 420.226 159.21C548.713 83.5432 679.044 38.9215 785.864 27.9133C892.781 16.8952 975.733 39.5711 1010.1 97.9264Z" stroke="#2E51A9" stroke-width="2"/>
<path d="M956.572 102.77C971.263 127.717 973.833 158.301 965.773 192.342C957.712 226.39 939.028 263.832 911.307 302.386C855.868 379.492 764.4 460.884 650.027 528.239C535.653 595.594 420.113 636.11 325.795 647.197C278.635 652.741 236.829 650.922 203.144 641.459C169.466 631.998 143.965 614.918 129.274 589.971C114.582 565.024 112.012 534.439 120.072 500.398C128.134 466.351 146.818 428.908 174.539 390.354C229.978 313.249 321.446 231.856 435.819 164.501C550.192 97.1461 665.733 56.6302 760.05 45.5429C807.211 39.999 849.017 41.8184 882.702 51.2812C916.38 60.7421 941.881 77.8227 956.572 102.77Z" stroke="#2E51A9" stroke-width="2"/>
<path d="M887.065 128.785C899.456 149.826 901.584 175.66 894.692 204.457C887.799 233.26 871.894 264.962 848.318 297.63C801.168 362.962 723.45 431.994 626.324 489.192C529.198 546.39 431.136 580.875 351.135 590.424C311.132 595.198 275.694 593.732 247.162 585.791C218.637 577.852 197.077 563.461 184.686 542.421C172.294 521.38 170.166 495.545 177.058 466.749C183.951 437.946 199.856 406.244 223.432 373.576C270.582 308.244 348.3 239.212 445.426 182.014C542.552 124.816 640.614 90.3307 720.615 80.7822C760.618 76.0078 796.056 77.4739 824.588 85.415C853.113 93.3542 874.674 107.745 887.065 128.785Z" stroke="#2E51A9" stroke-width="2"/>
<path d="M818.628 156.103C828.899 173.543 830.747 194.919 825.171 218.734C819.593 242.556 806.596 268.757 787.27 295.74C748.62 349.704 684.768 406.635 604.858 453.694C524.948 500.754 444.193 528.982 378.256 536.611C345.286 540.425 316.069 539.084 292.531 532.409C268.999 525.735 251.202 513.751 240.932 496.311C230.661 478.871 228.813 457.495 234.389 433.68C239.967 409.858 252.964 383.656 272.29 356.674C310.94 302.71 374.792 245.779 454.702 198.72C534.612 151.66 615.367 123.432 681.304 115.803C714.274 111.989 743.491 113.33 767.029 120.005C790.56 126.679 808.358 138.663 818.628 156.103Z" stroke="#2E51A9" stroke-width="2"/>
<path d="M755.441 180.638C763.608 194.508 765.08 211.524 760.623 230.514C756.164 249.511 745.782 270.421 730.336 291.967C699.447 335.058 648.419 380.539 584.557 418.148C520.695 455.757 456.173 478.324 403.508 484.438C377.174 487.496 353.853 486.434 335.078 481.12C316.309 475.809 302.141 466.268 293.973 452.399C285.806 438.529 284.334 421.512 288.791 402.523C293.25 383.526 303.632 362.616 319.078 341.07C349.967 297.979 400.995 252.498 464.857 214.889C528.719 177.28 593.241 154.713 645.906 148.599C672.239 145.541 695.561 146.603 714.336 151.917C733.105 157.228 747.273 166.769 755.441 180.638Z" stroke="#2E51A9" stroke-width="2"/>
<path d="M692.976 207.186C698.912 217.266 699.966 229.668 696.661 243.559C693.355 257.457 685.697 272.783 674.306 288.599C651.525 320.229 613.931 353.664 566.904 381.359C519.877 409.053 472.404 425.715 433.695 430.296C414.339 432.587 397.222 431.852 383.465 428.003C369.714 424.156 359.379 417.219 353.443 407.139C347.507 397.059 346.452 384.657 349.757 370.765C353.064 356.867 360.722 341.542 372.113 325.726C394.893 294.096 432.488 260.661 479.515 232.966C526.542 205.272 574.014 188.61 612.724 184.029C632.08 181.738 649.196 182.473 662.954 186.322C676.705 190.169 687.04 197.106 692.976 207.186Z" stroke="#2E51A9" stroke-width="2"/>
<path d="M641.785 234.812C645.811 241.65 646.482 250.122 644.11 259.688C641.737 269.261 636.33 279.86 628.309 290.836C612.268 312.786 585.889 336.082 552.958 355.476C520.026 374.869 486.859 386.64 459.885 390.022C446.395 391.714 434.504 391.302 424.982 388.734C415.465 386.169 408.381 381.473 404.355 374.636C400.328 367.799 399.658 359.327 402.029 349.76C404.403 340.188 409.809 329.588 417.831 318.612C433.871 296.663 460.25 273.366 493.182 253.973C526.113 234.579 559.28 222.809 586.255 219.426C599.744 217.735 611.635 218.147 621.158 220.714C630.674 223.28 637.758 227.975 641.785 234.812Z" stroke="#2E51A9" stroke-width="2"/>
</svg>
