<svg width="512" height="97" viewBox="0 0 512 97" fill="none" xmlns="http://www.w3.org/2000/svg">
<path fill-rule="evenodd" clip-rule="evenodd" d="M505.44 56.8069C508.628 53.8554 510 51.0795 510 48.5C510 45.9205 508.628 43.1446 505.44 40.1931C502.255 37.244 497.444 34.3045 491.065 31.4469C478.318 25.7376 459.749 20.5471 436.647 16.1704C390.476 7.42316 326.607 2 256 2C185.393 2 121.524 7.42316 75.353 16.1704C52.2511 20.5471 33.6816 25.7376 20.9353 31.4469C14.5555 34.3045 9.7452 37.244 6.55975 40.1931C3.37186 43.1446 2 45.9205 2 48.5C2 51.0795 3.37186 53.8554 6.55975 56.8069C9.7452 59.756 14.5555 62.6955 20.9353 65.5531C33.6816 71.2624 52.2511 76.4529 75.353 80.8296C121.524 89.5768 185.393 95 256 95C326.607 95 390.476 89.5768 436.647 80.8296C459.749 76.4529 478.318 71.2624 491.065 65.5531C497.444 62.6955 502.255 59.756 505.44 56.8069ZM256 97C397.385 97 512 75.2858 512 48.5C512 21.7142 397.385 0 256 0C114.615 0 0 21.7142 0 48.5C0 75.2858 114.615 97 256 97Z" fill="url(#paint0_linear_646_1596)"/>
<defs>
<linearGradient id="paint0_linear_646_1596" x1="256" y1="0" x2="256" y2="97" gradientUnits="userSpaceOnUse">
<stop offset="0.0319759" stop-color="#9F73E6" stop-opacity="0"/>
<stop offset="0.212083" stop-color="#9F73E6"/>
</linearGradient>
</defs>
</svg>
