<svg width="32" height="32" viewBox="0 0 32 32" fill="none" xmlns="http://www.w3.org/2000/svg">
<path d="M1.33276 12.215C1.33276 8.40611 1.33276 6.50167 2.06375 5.04687C2.70674 3.76719 3.73274 2.72678 4.99468 2.07475C6.42933 1.3335 8.30738 1.3335 12.0635 1.3335H19.9354C23.6915 1.3335 25.5695 1.3335 27.0042 2.07475C28.2661 2.72678 29.2921 3.76719 29.9351 5.04687C30.6661 6.50167 30.6661 8.40611 30.6661 12.215V19.7853C30.6661 23.5942 30.6661 25.4987 29.9351 26.9535C29.2921 28.2331 28.2661 29.2735 27.0042 29.9256C25.5695 30.6668 23.6915 30.6668 19.9354 30.6668H12.0635C8.30737 30.6668 6.42933 30.6668 4.99468 29.9256C3.73274 29.2735 2.70674 28.2331 2.06375 26.9535C1.33276 25.4987 1.33276 23.5942 1.33276 19.7853V12.215Z" fill="#3559FB"/>
<path fill-rule="evenodd" clip-rule="evenodd" d="M15.3909 5.77185C12.7449 6.03372 10.7198 6.94862 8.966 8.67455C5.6827 11.9056 4.95675 16.9961 7.1999 21.0588C8.70776 23.7898 11.3381 25.6581 14.4078 26.1784C15.1855 26.3103 16.7391 26.3255 17.491 26.2087C20.0925 25.8044 22.3923 24.4532 23.9923 22.3889C25.9163 19.9065 26.5912 16.8126 25.8926 13.6771C25.0064 9.70018 21.6692 6.53527 17.695 5.90265C17.0335 5.79734 15.8257 5.72878 15.3909 5.77185ZM19.3539 13.1355V18.9335L18.8933 19.4007H13.1756L12.715 18.9335V13.1355L13.1756 12.6684H18.8933L19.3539 13.1355Z" fill="white"/>
</svg>
