<svg width="24" height="24" viewBox="0 0 24 24" fill="none" xmlns="http://www.w3.org/2000/svg">
<path fill-rule="evenodd" clip-rule="evenodd" d="M8.5953 0.358766C6.88885 0.861217 6.08577 1.27594 4.64649 2.39761C2.52726 4.0492 1.22787 5.90963 0.450204 8.40607C-0.0124154 9.8909 -0.0494565 10.2556 0.0372354 12.4565C0.144221 15.1655 0.611569 16.8134 1.62094 18.0415C2.13873 18.6714 2.27369 18.7281 3.25469 18.7281C5.06143 18.7281 5.11206 18.61 5.11206 14.3883C5.11206 10.3388 5.07246 10.4297 6.83467 10.4297C8.52142 10.4297 8.54565 10.483 8.65855 14.4473L8.75706 17.905L9.3974 17.6345L10.0377 17.3642V13.0077C10.0377 8.91484 10.0616 8.62756 10.4318 8.2563C10.7269 7.96033 11.0885 7.86114 11.8719 7.86114C13.6069 7.86114 13.5724 7.77302 13.6313 12.3555L13.6827 16.3562L14.3723 16.0108L15.0619 15.6656L15.1604 10.7593C15.2521 6.19335 15.2856 5.83336 15.6414 5.57275C16.1513 5.19932 17.7216 5.21572 18.2689 5.60021C18.6961 5.90014 18.7069 6.00348 18.7069 9.74943C18.7069 11.8624 18.7635 13.591 18.8328 13.591C18.902 13.591 19.5683 13.0907 20.3135 12.4794C21.7941 11.2647 23.1802 9.64511 23.3625 8.91702C23.5755 8.06584 22.2885 5.46902 20.8307 3.80795C19.7837 2.61515 17.5317 1.1242 15.9044 0.546469C14.0947 -0.0958691 10.4564 -0.189325 8.5953 0.358766ZM22.7074 12.4599C19.2752 16.6604 13.2353 19.9715 6.71961 21.224C5.72718 21.4149 4.91503 21.6217 4.91503 21.684C4.91503 21.7462 5.38061 22.0728 5.94943 22.4099C8.63254 23.9996 12.3343 24.4402 15.4207 23.5371C18.2614 22.7058 21.4375 20.0055 22.7038 17.3451C23.4833 15.7073 24.0856 13.1156 23.99 11.8104L23.9281 10.9657L22.7074 12.4599Z" fill="#1B1C1D"/>
</svg>
