<svg width="32" height="32" viewBox="0 0 32 32" fill="none" xmlns="http://www.w3.org/2000/svg">
<g clip-path="url(#clip0_109_2460)">
<path d="M28.9915 11.0651C28.3598 9.54504 27.0783 7.9038 26.0748 7.38498C26.7904 8.77071 27.2871 10.2589 27.5472 11.7966L27.5498 11.821C25.906 7.72448 23.1194 6.07011 20.8423 2.47251C20.7271 2.29056 20.612 2.10825 20.4998 1.9158C20.4357 1.80588 20.3843 1.70685 20.3396 1.61569C20.2452 1.43283 20.1724 1.23957 20.1228 1.03985C20.1229 1.03063 20.1195 1.02171 20.1134 1.01479C20.1074 1.00787 20.0989 1.00344 20.0898 1.00233C20.0808 0.999874 20.0714 0.999874 20.0624 1.00233C20.0605 1.00233 20.0575 1.00571 20.0553 1.00646C20.053 1.00721 20.0481 1.01059 20.0448 1.01209L20.0504 1.00233C16.3984 3.14063 15.1586 7.09837 15.046 9.07911C13.5871 9.17913 12.1922 9.71658 11.0433 10.6213C10.9234 10.5198 10.7982 10.4249 10.6681 10.337C10.3369 9.17737 10.3228 7.95015 10.6272 6.78325C9.28605 7.43292 8.09435 8.35394 7.12755 9.48801H7.1208C6.54458 8.75761 6.58509 6.34921 6.61811 5.84615C6.44764 5.91466 6.28492 6.00105 6.13267 6.10387C5.62399 6.46691 5.14846 6.87428 4.71164 7.3212C4.21386 7.82588 3.75923 8.37137 3.35251 8.95194V8.95419V8.95156C2.41786 10.2764 1.75486 11.7733 1.40178 13.3557L1.38227 13.4517C1.35488 13.5797 1.25622 14.2204 1.23934 14.3596C1.23934 14.3705 1.23709 14.3806 1.23596 14.3915C1.1087 15.053 1.02983 15.7229 1 16.3959V16.4709C1.00643 20.1092 2.37661 23.6129 4.84007 26.2904C7.30354 28.9678 10.6813 30.6244 14.3065 30.9332C17.9317 31.242 21.5409 30.1804 24.4217 27.9582C27.3024 25.7359 29.2454 22.5144 29.8671 18.9296C29.8915 18.742 29.9113 18.5563 29.9331 18.3668C30.2326 15.8916 29.9084 13.3808 28.99 11.0629L28.9915 11.0651ZM12.234 22.4469C12.3019 22.4795 12.3656 22.5148 12.4354 22.5459L12.4455 22.5523C12.375 22.5185 12.3045 22.4834 12.234 22.4469ZM27.5502 11.8251V11.8113L27.5528 11.8266L27.5502 11.8251Z" fill="url(#paint0_linear_109_2460)"/>
<path d="M28.9904 11.0649C28.3587 9.54483 27.0772 7.90359 26.0737 7.38477C26.7893 8.7705 27.286 10.2587 27.5462 11.7964V11.8103L27.5488 11.8257C28.6696 15.0328 28.5075 18.549 27.0964 21.6394C25.43 25.2148 21.398 28.8796 15.0844 28.6995C8.2643 28.5063 2.25455 23.4438 1.13288 16.8151C0.928426 15.7695 1.13288 15.2395 1.23567 14.3898C1.09546 15.0498 1.01721 15.7214 1.00195 16.396V16.471C1.00838 20.1094 2.37856 23.6131 4.84203 26.2905C7.30549 28.968 10.6832 30.6246 14.3084 30.9334C17.9336 31.2421 21.5428 30.1806 24.4236 27.9583C27.3044 25.7361 29.2474 22.5145 29.869 18.9297C29.8934 18.7421 29.9133 18.5565 29.9351 18.367C30.2345 15.8918 29.9103 13.381 28.9919 11.063L28.9904 11.0649Z" fill="url(#paint1_radial_109_2460)"/>
<path d="M28.9904 11.0649C28.3587 9.54483 27.0772 7.90359 26.0737 7.38477C26.7893 8.7705 27.286 10.2587 27.5462 11.7964V11.8103L27.5488 11.8257C28.6696 15.0328 28.5075 18.549 27.0964 21.6394C25.43 25.2148 21.398 28.8796 15.0844 28.6995C8.2643 28.5063 2.25455 23.4438 1.13288 16.8151C0.928426 15.7695 1.13288 15.2395 1.23567 14.3898C1.09546 15.0498 1.01721 15.7214 1.00195 16.396V16.471C1.00838 20.1094 2.37856 23.6131 4.84203 26.2905C7.30549 28.968 10.6832 30.6246 14.3084 30.9334C17.9336 31.2421 21.5428 30.1806 24.4236 27.9583C27.3044 25.7361 29.2474 22.5145 29.869 18.9297C29.8934 18.7421 29.9133 18.5565 29.9351 18.367C30.2345 15.8918 29.9103 13.381 28.9919 11.063L28.9904 11.0649Z" fill="url(#paint2_radial_109_2460)"/>
<path d="M21.9243 12.7719C21.9558 12.794 21.9851 12.8162 22.0147 12.8383C21.6495 12.1907 21.1948 11.5978 20.6642 11.077C16.1437 6.55658 19.4799 1.27835 20.0422 1.00825L20.0478 1C16.3958 3.1383 15.156 7.09604 15.0435 9.07678C15.213 9.06515 15.3811 9.05089 15.5544 9.05089C16.8501 9.0534 18.122 9.39894 19.2408 10.0524C20.3597 10.7058 21.2855 11.6439 21.9243 12.7712V12.7719Z" fill="url(#paint3_radial_109_2460)"/>
<path d="M15.5609 13.6759C15.5369 14.0375 14.2592 15.2849 13.8124 15.2849C9.67834 15.2849 9.00684 17.7859 9.00684 17.7859C9.1899 19.892 10.6575 21.6274 12.4315 22.5427C12.5125 22.5847 12.5947 22.6226 12.6768 22.6598C12.8191 22.7228 12.9614 22.7811 13.1037 22.8346C13.7126 23.05 14.3503 23.1731 14.9956 23.1996C22.2433 23.5395 23.6463 14.5339 18.4165 11.9191C19.6502 11.7586 20.8995 12.0619 21.9222 12.7703C21.2834 11.643 20.3576 10.705 19.2387 10.0515C18.1199 9.3981 16.848 9.05256 15.5523 9.05005C15.3797 9.05005 15.2109 9.0643 15.0413 9.07593C13.5824 9.17596 12.1875 9.7134 11.0386 10.6181C11.2603 10.8057 11.5105 11.0563 12.0376 11.5759C13.0242 12.5479 15.5545 13.5547 15.5602 13.6729L15.5609 13.6759Z" fill="url(#paint4_radial_109_2460)"/>
<path d="M15.5609 13.6759C15.5369 14.0375 14.2592 15.2849 13.8124 15.2849C9.67834 15.2849 9.00684 17.7859 9.00684 17.7859C9.1899 19.892 10.6575 21.6274 12.4315 22.5427C12.5125 22.5847 12.5947 22.6226 12.6768 22.6598C12.8191 22.7228 12.9614 22.7811 13.1037 22.8346C13.7126 23.05 14.3503 23.1731 14.9956 23.1996C22.2433 23.5395 23.6463 14.5339 18.4165 11.9191C19.6502 11.7586 20.8995 12.0619 21.9222 12.7703C21.2834 11.643 20.3576 10.705 19.2387 10.0515C18.1199 9.3981 16.848 9.05256 15.5523 9.05005C15.3797 9.05005 15.2109 9.0643 15.0413 9.07593C13.5824 9.17596 12.1875 9.7134 11.0386 10.6181C11.2603 10.8057 11.5105 11.0563 12.0376 11.5759C13.0242 12.5479 15.5545 13.5547 15.5602 13.6729L15.5609 13.6759Z" fill="url(#paint5_radial_109_2460)"/>
<path d="M10.3625 10.1384C10.4803 10.2135 10.5775 10.2787 10.6626 10.3376C10.3314 9.17806 10.3173 7.95084 10.6218 6.78394C9.28058 7.4336 8.08887 8.35462 7.12207 9.4887C7.19297 9.48682 9.30201 9.44894 10.3625 10.1384Z" fill="url(#paint6_radial_109_2460)"/>
<path d="M1.13078 16.8158C2.25282 23.4445 8.2622 28.5089 15.0823 28.7003C21.3959 28.8788 25.4286 25.2137 27.0943 21.6401C28.5054 18.5497 28.6675 15.0335 27.5467 11.8264V11.8125C27.5467 11.8017 27.5444 11.7953 27.5467 11.7987L27.5493 11.8231C28.0651 15.1907 26.3522 18.4518 23.6741 20.6614L23.6659 20.6801C18.4476 24.9305 13.4545 23.2438 12.4454 22.5558C12.3749 22.5221 12.3043 22.4869 12.2338 22.4504C9.1918 20.9964 7.9347 18.2263 8.2048 15.8479C7.4827 15.8586 6.773 15.6596 6.16169 15.2751C5.55039 14.8906 5.06371 14.337 4.76064 13.6815C5.55924 13.1923 6.4698 12.9157 7.40558 12.8782C8.34135 12.8406 9.27115 13.0433 10.1064 13.4669C11.828 14.2484 13.787 14.3254 15.5647 13.6815C15.5591 13.5633 13.0287 12.5561 12.0421 11.5845C11.515 11.0649 11.2648 10.8147 11.0431 10.6267C10.9233 10.5252 10.7981 10.4303 10.668 10.3424C10.5817 10.2835 10.4845 10.2197 10.3679 10.1432C9.30734 9.45366 7.1983 9.49155 7.12852 9.49343H7.12177C6.54556 8.76303 6.58607 6.35463 6.61908 5.85156C6.44862 5.92007 6.2859 6.00646 6.13365 6.10928C5.62497 6.47232 5.14944 6.87969 4.71262 7.32662C4.21306 7.82988 3.75654 8.37411 3.34786 8.9536V8.95585V8.95323C2.41321 10.2781 1.75021 11.7749 1.39713 13.3574C1.39 13.387 0.87343 15.6454 1.12815 16.8165L1.13078 16.8158Z" fill="url(#paint7_radial_109_2460)"/>
<path d="M20.664 11.0764C21.1948 11.5977 21.6494 12.1913 22.0145 12.8396C22.0944 12.9 22.1691 12.96 22.2325 13.0181C25.5288 16.0568 23.8017 20.3521 23.673 20.656C26.3508 18.4498 28.0622 15.1864 27.5482 11.8177C25.9036 7.7174 23.114 6.06303 20.8407 2.46543C20.7255 2.28348 20.6104 2.10117 20.4982 1.90872C20.434 1.7988 20.3826 1.69977 20.338 1.60861C20.2436 1.42575 20.1708 1.23249 20.1212 1.03277C20.1212 1.02355 20.1179 1.01463 20.1118 1.00771C20.1057 1.00079 20.0973 0.996358 20.0882 0.995252C20.0792 0.992794 20.0697 0.992794 20.0608 0.995252C20.0589 0.995252 20.0559 0.998628 20.0536 0.999378C20.0514 1.00013 20.0465 1.0035 20.0431 1.00501C19.4808 1.27173 16.1454 6.55334 20.6659 11.07L20.664 11.0764Z" fill="url(#paint8_radial_109_2460)"/>
<path d="M22.2307 13.0195C22.1673 12.9613 22.0926 12.9013 22.0127 12.8409C21.9831 12.8188 21.9538 12.7966 21.9223 12.7745C20.8996 12.0661 19.6503 11.7628 18.4166 11.9233C23.6461 14.538 22.2431 23.5414 14.9957 23.2038C14.3504 23.1773 13.7127 23.0542 13.1039 22.8388C12.9616 22.7855 12.8193 22.7272 12.677 22.664C12.5948 22.6265 12.5127 22.5889 12.4316 22.5469L12.4418 22.5533C13.4524 23.2432 18.444 24.9287 23.6622 20.6776L23.6705 20.6588C23.8007 20.355 25.5278 16.0596 22.2299 13.021L22.2307 13.0195Z" fill="url(#paint9_radial_109_2460)"/>
<path d="M9.00876 17.7837C9.00876 17.7837 9.67988 15.2827 13.8143 15.2827C14.2611 15.2827 15.54 14.0353 15.5628 13.6737C13.7852 14.3176 11.8262 14.2406 10.1045 13.4591C9.2693 13.0355 8.3395 12.8328 7.40373 12.8704C6.46795 12.9079 5.55739 13.1845 4.75879 13.6737C5.06186 14.3292 5.54854 14.8828 6.15984 15.2673C6.77115 15.6518 7.48085 15.8508 8.20296 15.8401C7.9336 18.2174 9.19033 20.9871 12.232 22.4426C12.2999 22.4753 12.3636 22.5105 12.4334 22.5417C10.6579 21.6244 9.19183 19.8898 9.00876 17.7849V17.7837Z" fill="url(#paint10_radial_109_2460)"/>
<path d="M28.9907 11.0651C28.359 9.54504 27.0775 7.9038 26.074 7.38498C26.7896 8.77071 27.2863 10.2589 27.5465 11.7966L27.5491 11.821C25.9052 7.72448 23.1187 6.07011 20.8416 2.47251C20.7264 2.29056 20.6112 2.10825 20.4991 1.9158C20.4349 1.80588 20.3835 1.70685 20.3389 1.61569C20.2444 1.43283 20.1717 1.23957 20.122 1.03985C20.1221 1.03063 20.1188 1.02171 20.1127 1.01479C20.1066 1.00787 20.0982 1.00344 20.089 1.00233C20.0801 0.999874 20.0706 0.999874 20.0616 1.00233C20.0598 1.00233 20.0568 1.00571 20.0545 1.00646C20.0523 1.00721 20.0474 1.01059 20.044 1.01209L20.0496 1.00233C16.3976 3.14063 15.1578 7.09837 15.0453 9.07911C15.2148 9.06748 15.3829 9.05323 15.5562 9.05323C16.8519 9.05573 18.1238 9.40127 19.2426 10.0547C20.3615 10.7082 21.2873 11.6462 21.9261 12.7735C20.9034 12.0651 19.6541 11.7618 18.4204 11.9223C23.6499 14.537 22.2468 23.5404 14.9995 23.2028C14.3542 23.1763 13.7165 23.0532 13.1077 22.8378C12.9654 22.7845 12.8231 22.7262 12.6808 22.663C12.5986 22.6254 12.5164 22.5879 12.4354 22.5459L12.4455 22.5523C12.375 22.5185 12.3045 22.4834 12.234 22.4469C12.3019 22.4795 12.3656 22.5148 12.4354 22.5459C10.6599 21.6283 9.19382 19.8937 9.01075 17.7891C9.01075 17.7891 9.68188 15.2881 13.8163 15.2881C14.2631 15.2881 15.542 14.0407 15.5648 13.6791C15.5592 13.5609 13.0289 12.5537 12.0423 11.582C11.5152 11.0625 11.265 10.8123 11.0433 10.6243C10.9234 10.5228 10.7982 10.4279 10.6681 10.34C10.3369 9.18037 10.3228 7.95315 10.6272 6.78625C9.28605 7.43592 8.09435 8.35694 7.12755 9.49102H7.1208C6.54458 8.76062 6.58509 6.35221 6.61811 5.84915C6.44764 5.91766 6.28492 6.00405 6.13267 6.10687C5.62399 6.46991 5.14846 6.87728 4.71164 7.3242C4.21386 7.82888 3.75923 8.37437 3.35251 8.95494V8.95719V8.95456C2.41786 10.2794 1.75486 11.7763 1.40178 13.3587L1.38227 13.4548C1.35488 13.5827 1.23221 14.2324 1.21458 14.372C1.10238 15.0427 1.03072 15.7195 1 16.3989V16.4739C1.00643 20.1122 2.37661 23.6159 4.84007 26.2934C7.30354 28.9708 10.6813 30.6274 14.3065 30.9362C17.9317 31.245 21.5409 30.1834 24.4217 27.9612C27.3025 25.7389 29.2454 22.5174 29.8671 18.9326C29.8915 18.745 29.9113 18.5593 29.9331 18.3698C30.2326 15.8946 29.9084 13.3838 28.99 11.0659L28.9907 11.0651ZM27.5483 11.812L27.551 11.8274L27.5483 11.812Z" fill="url(#paint11_linear_109_2460)"/>
</g>
<defs>
<linearGradient id="paint0_linear_109_2460" x1="27.067" y1="5.64654" x2="2.92935" y2="28.9353" gradientUnits="userSpaceOnUse">
<stop offset="0.048" stop-color="#FFF44F"/>
<stop offset="0.111" stop-color="#FFE847"/>
<stop offset="0.225" stop-color="#FFC830"/>
<stop offset="0.368" stop-color="#FF980E"/>
<stop offset="0.401" stop-color="#FF8B16"/>
<stop offset="0.462" stop-color="#FF672A"/>
<stop offset="0.534" stop-color="#FF3647"/>
<stop offset="0.705" stop-color="#E31587"/>
</linearGradient>
<radialGradient id="paint1_radial_109_2460" cx="0" cy="0" r="1" gradientUnits="userSpaceOnUse" gradientTransform="translate(26.1319 4.37614) scale(30.3114)">
<stop offset="0.129" stop-color="#FFBD4F"/>
<stop offset="0.186" stop-color="#FFAC31"/>
<stop offset="0.247" stop-color="#FF9D17"/>
<stop offset="0.283" stop-color="#FF980E"/>
<stop offset="0.403" stop-color="#FF563B"/>
<stop offset="0.467" stop-color="#FF3750"/>
<stop offset="0.71" stop-color="#F5156C"/>
<stop offset="0.782" stop-color="#EB0878"/>
<stop offset="0.86" stop-color="#E50080"/>
</radialGradient>
<radialGradient id="paint2_radial_109_2460" cx="0" cy="0" r="1" gradientUnits="userSpaceOnUse" gradientTransform="translate(14.8777 16.7558) scale(30.3114)">
<stop offset="0.3" stop-color="#960E18"/>
<stop offset="0.351" stop-color="#B11927" stop-opacity="0.74"/>
<stop offset="0.435" stop-color="#DB293D" stop-opacity="0.343"/>
<stop offset="0.497" stop-color="#F5334B" stop-opacity="0.094"/>
<stop offset="0.53" stop-color="#FF3750" stop-opacity="0"/>
</radialGradient>
<radialGradient id="paint3_radial_109_2460" cx="0" cy="0" r="1" gradientUnits="userSpaceOnUse" gradientTransform="translate(18.6306 -2.37627) scale(21.957)">
<stop offset="0.132" stop-color="#FFF44F"/>
<stop offset="0.252" stop-color="#FFDC3E"/>
<stop offset="0.506" stop-color="#FF9D12"/>
<stop offset="0.526" stop-color="#FF980E"/>
</radialGradient>
<radialGradient id="paint4_radial_109_2460" cx="0" cy="0" r="1" gradientUnits="userSpaceOnUse" gradientTransform="translate(11.5019 24.6338) scale(14.4317)">
<stop offset="0.353" stop-color="#3A8EE6"/>
<stop offset="0.472" stop-color="#5C79F0"/>
<stop offset="0.669" stop-color="#9059FF"/>
<stop offset="1" stop-color="#C139E6"/>
</radialGradient>
<radialGradient id="paint5_radial_109_2460" cx="0" cy="0" r="1" gradientUnits="userSpaceOnUse" gradientTransform="translate(16.3442 14.1538) rotate(-13.5916) scale(7.6529 8.95964)">
<stop offset="0.206" stop-color="#9059FF" stop-opacity="0"/>
<stop offset="0.278" stop-color="#8C4FF3" stop-opacity="0.064"/>
<stop offset="0.747" stop-color="#7716A8" stop-opacity="0.45"/>
<stop offset="0.975" stop-color="#6E008B" stop-opacity="0.6"/>
</radialGradient>
<radialGradient id="paint6_radial_109_2460" cx="0" cy="0" r="1" gradientUnits="userSpaceOnUse" gradientTransform="translate(14.5041 3.25086) scale(10.3839)">
<stop stop-color="#FFE226"/>
<stop offset="0.121" stop-color="#FFDB27"/>
<stop offset="0.295" stop-color="#FFC82A"/>
<stop offset="0.502" stop-color="#FFA930"/>
<stop offset="0.732" stop-color="#FF7E37"/>
<stop offset="0.792" stop-color="#FF7139"/>
</radialGradient>
<radialGradient id="paint7_radial_109_2460" cx="0" cy="0" r="1" gradientUnits="userSpaceOnUse" gradientTransform="translate(22.7561 -3.50182) scale(44.3041)">
<stop offset="0.113" stop-color="#FFF44F"/>
<stop offset="0.456" stop-color="#FF980E"/>
<stop offset="0.622" stop-color="#FF5634"/>
<stop offset="0.716" stop-color="#FF3647"/>
<stop offset="0.904" stop-color="#E31587"/>
</radialGradient>
<radialGradient id="paint8_radial_109_2460" cx="0" cy="0" r="1" gradientUnits="userSpaceOnUse" gradientTransform="translate(19.0749 -1.04514) rotate(83.976) scale(32.4667 21.3076)">
<stop stop-color="#FFF44F"/>
<stop offset="0.06" stop-color="#FFE847"/>
<stop offset="0.168" stop-color="#FFC830"/>
<stop offset="0.304" stop-color="#FF980E"/>
<stop offset="0.356" stop-color="#FF8B16"/>
<stop offset="0.455" stop-color="#FF672A"/>
<stop offset="0.57" stop-color="#FF3647"/>
<stop offset="0.737" stop-color="#E31587"/>
</radialGradient>
<radialGradient id="paint9_radial_109_2460" cx="0" cy="0" r="1" gradientUnits="userSpaceOnUse" gradientTransform="translate(14.5028 7.00222) scale(27.6554)">
<stop offset="0.137" stop-color="#FFF44F"/>
<stop offset="0.48" stop-color="#FF980E"/>
<stop offset="0.592" stop-color="#FF5634"/>
<stop offset="0.655" stop-color="#FF3647"/>
<stop offset="0.904" stop-color="#E31587"/>
</radialGradient>
<radialGradient id="paint10_radial_109_2460" cx="0" cy="0" r="1" gradientUnits="userSpaceOnUse" gradientTransform="translate(21.6322 8.50277) scale(30.2701)">
<stop offset="0.094" stop-color="#FFF44F"/>
<stop offset="0.231" stop-color="#FFE141"/>
<stop offset="0.509" stop-color="#FFAF1E"/>
<stop offset="0.626" stop-color="#FF980E"/>
</radialGradient>
<linearGradient id="paint11_linear_109_2460" x1="26.7737" y1="5.52274" x2="6.23846" y2="26.0617" gradientUnits="userSpaceOnUse">
<stop offset="0.167" stop-color="#FFF44F" stop-opacity="0.8"/>
<stop offset="0.266" stop-color="#FFF44F" stop-opacity="0.634"/>
<stop offset="0.489" stop-color="#FFF44F" stop-opacity="0.217"/>
<stop offset="0.6" stop-color="#FFF44F" stop-opacity="0"/>
</linearGradient>
<clipPath id="clip0_109_2460">
<rect width="29.0434" height="30" fill="white" transform="translate(0.999023 1)"/>
</clipPath>
</defs>
</svg>
