<svg width="33" height="32" viewBox="0 0 33 32" fill="none" xmlns="http://www.w3.org/2000/svg">
<g opacity="0.5">
<g opacity="0.5">
<path opacity="0.5" d="M4.00506 8.50342L4.00391 8.50111L4.00506 8.50342Z" fill="#D663FF"/>
</g>
</g>
<g opacity="0.5">
<g opacity="0.5">
<path opacity="0.5" d="M4.00506 8.50342L4.00391 8.50111L4.00506 8.50342Z" fill="#9963FF"/>
</g>
</g>
<path d="M17.0002 15.9996L23.4953 19.7495L17.0002 30.9992C25.2842 30.9992 31.9997 24.2837 31.9997 15.9996C31.9997 13.2667 31.2652 10.7067 29.9881 8.49976H17L17.0002 15.9996Z" fill="#FBBF12"/>
<path d="M17.0012 1C11.4494 1 6.60584 4.01838 4.01221 8.50166L10.506 19.7496L17.0012 15.9998V8.49989H29.9893C27.3952 4.01772 22.5523 1 17.0012 1Z" fill="url(#paint0_linear_109_2443)"/>
<path d="M2.00009 15.9996C2.00009 24.2836 8.71538 30.9991 16.9996 30.9991L23.4948 19.7494L16.9996 15.9996L10.5045 19.7494L4.01064 8.50146C2.73427 10.7078 2 13.2669 2 15.9994" fill="url(#paint1_linear_109_2443)"/>
<path d="M24.4998 15.9996C24.4998 20.1417 21.1419 23.4995 16.9999 23.4995C12.8579 23.4995 9.5 20.1417 9.5 15.9996C9.5 11.8576 12.8579 8.49976 16.9999 8.49976C21.1419 8.49976 24.4998 11.8576 24.4998 15.9996Z" fill="white"/>
<path d="M23.0936 15.9997C23.0936 19.3651 20.3653 22.0934 16.9999 22.0934C13.6345 22.0934 10.9062 19.3651 10.9062 15.9997C10.9062 12.6343 13.6345 9.90601 16.9999 9.90601C20.3653 9.90601 23.0936 12.6343 23.0936 15.9997Z" fill="#1A73E8"/>
<defs>
<linearGradient id="paint0_linear_109_2443" x1="8.5121" y1="10.3747" x2="22.084" y2="10.3747" gradientUnits="userSpaceOnUse">
<stop stop-color="#DB3328"/>
<stop offset="1" stop-color="#E53D30"/>
</linearGradient>
<linearGradient id="paint1_linear_109_2443" x1="7.71619" y1="11.1724" x2="13.2786" y2="20.8068" gradientUnits="userSpaceOnUse">
<stop stop-color="#32A651"/>
<stop offset="1" stop-color="#279847"/>
</linearGradient>
</defs>
</svg>
