<svg width="32" height="32" viewBox="0 0 32 32" fill="none" xmlns="http://www.w3.org/2000/svg">
<path d="M29.6129 26.156L27.7497 26.6114L27.3641 26.904L10.9268 24.6937H1.20312L4.67513 16.1L10.3197 16.1337L11.6866 18.6143L16.1958 23.2952L15.6116 20.3805L19.6361 21.096L27.3641 26.904L21.2561 21.096L20.2532 18.3216L16.7252 9.72907C16.7252 9.72907 14.0144 4.92933 13.9584 4.87554C14.0348 4.88555 20.2532 4.85303 20.2532 4.85303L21.3885 9.46888L23.8921 18.3216L24.5754 20.7171L27 23.5228L25.0273 20.5107L26.3165 19.9691L26.9338 22.6998L26.9898 23.5228L29.6129 26.156Z" fill="#F58C25"/>
<path d="M10.3186 16.1324L4.67406 16.0999L3.32878 14.6802L4.17769 14.1172L2.65678 13.3041L3.9575 12.9576L2.17188 11.853L3.24097 11.3977L3.50569 9.75025L6.47115 4.3113L10.484 0.852539L13.9459 4.87296L16.7242 9.71648L10.3186 16.1312V16.1324Z" fill="#81491F"/>
<path d="M1.20312 24.6934H10.9369L13.5944 28.1821C13.5944 28.1821 6.98003 30.1435 3.66076 31.1405C2.81186 28.919 2.00621 26.8061 1.20312 24.6934Z" fill="#E48027"/>
<path d="M27.3748 9.96681L28.1575 10.855L27.5849 11.5279L28.3778 12.0909L27.805 12.8389L27.9373 14.0198L26.9561 15.168L21.3879 9.46895L30.2627 2.24121L27.3748 9.96681Z" fill="#81491F"/>
<path d="M27.3652 26.9038L27.3982 29.0603L24.2343 30.6315L13.5841 28.1922C13.5841 28.1922 13.5064 28.2472 13.5841 28.1922C18.0489 27.7707 27.3652 26.9038 27.3652 26.9038Z" fill="#D9C6B7"/>
<path d="M30.2626 2.24121L21.388 9.46896L20.2527 4.85311L30.2626 2.24121Z" fill="#E48027"/>
<path d="M21.3879 9.46875L26.9446 15.1679L26.713 18.1263L23.8914 18.3214L21.3879 9.46875Z" fill="#E57F24"/>
<path d="M13.5833 28.1807L24.2321 30.6199L27.3962 29.0476L29.5687 28.8637L27.9141 30.9878L23.4277 31.3881L13.5833 28.1807Z" fill="#C7B7AB"/>
<path d="M13.5835 28.1822L10.9375 24.6922L16.1964 23.2949L13.5835 28.1822Z" fill="#D76F21"/>
<path d="M29.5702 28.864C28.8422 28.929 28.1257 28.994 27.3977 29.0491L27.3645 26.8925L27.7502 26.5998L29.6135 26.1558C29.6135 26.1558 30.2422 26.5885 30.7818 26.8925C30.3529 27.5856 29.9546 28.2247 29.5702 28.864Z" fill="#2A2626"/>
<path d="M23.8906 18.3217L26.7136 18.1265L26.3279 19.9691L25.2588 18.7119L25.0272 20.5108L26.9999 23.523L24.5754 20.7058L23.8919 18.3217H23.8906Z" fill="#D66F21"/>
<path d="M10.3203 16.1319L16.7259 9.71729L20.2539 18.321L11.6885 18.6138L10.3203 16.1319Z" fill="#E47E25"/>
<path d="M13.5833 28.1822L16.1962 23.2949L27.3643 26.9038L13.5833 28.1822Z" fill="#E47F26"/>
<path d="M11.6875 18.6139L20.2529 18.3213L19.6357 21.0958L18.1924 18.9067L15.6126 20.3803L11.6875 18.6139Z" fill="#D66F21"/>
<path d="M19.6355 21.0958L20.2527 18.3213L21.2556 21.0958L27.3647 26.9038C27.3647 26.9038 21.3994 22.4281 19.6355 21.0958Z" fill="#E47F25"/>
<path d="M19.6364 21.0958L15.6121 20.3803L18.1918 18.9067L19.6364 21.0958Z" fill="#32404E"/>
<path d="M15.6126 20.3803L16.1967 23.2949L11.6875 18.6152L15.6126 20.3816V20.3803Z" fill="#E57F25"/>
<path d="M25.0286 20.5108L25.2601 18.7119L26.3292 19.9679L25.0286 20.5108Z" fill="#38424D"/>
<path d="M26.3281 19.9691L26.7137 18.1265L27.121 20.0879L26.9454 22.6998L26.3281 19.9691Z" fill="#E57F24"/>
</svg>
