<svg width="32" height="32" viewBox="0 0 32 32" fill="none" xmlns="http://www.w3.org/2000/svg">
<rect x="1" y="1" width="30" height="30" rx="6.75" fill="#4E74B7"/>
<rect x="5.27002" y="3.35791" width="22.5843" height="24.8131" fill="white"/>
<path fill-rule="evenodd" clip-rule="evenodd" d="M7.6273 1.88485C4.59202 2.56098 2.94202 4.03316 2.01157 7.02893L1.75 7.871V15.9549C1.75 23.3687 1.76663 24.099 1.95056 24.765C2.7364 27.6101 4.17348 29.1086 7.01124 29.9886L7.85393 30.25H15.9438C23.363 30.25 24.0939 30.2334 24.7605 30.0496C27.6076 29.2643 29.1078 27.8289 29.9884 24.9932L30.25 24.1511V16.0672C30.25 8.65346 30.2334 7.9231 30.0494 7.25707C29.2719 4.44207 27.8907 2.98022 25.0449 2.03519L24.2584 1.77392L16.2809 1.75405C9.9618 1.73833 8.16281 1.76561 7.6273 1.88485ZM16.9962 7.29603C17.9961 7.95566 18.4738 8.1856 19.5439 8.52243C20.6248 8.86274 21.8777 9.04991 23.0744 9.04991C23.7728 9.04991 24.007 9.09392 24.2179 9.26514C24.479 9.47701 24.4827 9.50845 24.453 11.2581C24.3902 14.9682 24.0282 18.2735 23.5113 19.8574C22.8189 21.9792 21.8613 23.0062 19.037 24.6564C15.8224 26.5344 16.0969 26.4063 15.7149 26.2072C14.6821 25.6687 11.3542 23.6501 10.8002 23.2264C8.76202 21.667 7.99393 19.2633 7.6873 13.4848C7.50843 10.1111 7.52449 9.64958 7.83146 9.34284C8.06494 9.10964 8.22573 9.0782 9.48876 9.01948C11.7374 8.91495 13.5865 8.32617 15.2438 7.18701C15.55 6.9765 15.9018 6.80438 16.0256 6.80438C16.1494 6.80438 16.5862 7.02567 16.9962 7.29603ZM15.4817 9.08056C14.1597 9.90287 12.0418 10.5563 10.2647 10.6904L9.24416 10.7674L9.30506 11.7331C9.33865 12.2643 9.39562 13.3052 9.4318 14.0462C9.63292 18.1707 10.267 20.4227 11.5591 21.6029C11.8999 21.9141 12.8994 22.5844 13.7803 23.0926C14.6612 23.6006 15.5183 24.1113 15.6848 24.2274L15.9876 24.4383L17.9711 23.2842C19.1961 22.5716 20.1888 21.9065 20.5667 21.5455C21.9374 20.236 22.5258 17.8242 22.7045 12.7831L22.7771 10.7341H22.2735C20.7785 10.7341 18.2069 10.0071 16.7782 9.18049L16.0233 8.74373L15.4817 9.08056Z" fill="#4E74B7"/>
</svg>
