<svg width="20" height="20" viewBox="0 0 20 20" fill="none" xmlns="http://www.w3.org/2000/svg">
<path d="M18.5061 16.3474L17.3416 16.632L17.1006 16.8149L6.82727 15.4334H0.75L2.92 10.0624L6.44784 10.0834L7.30216 11.6338L10.1204 14.5594L9.75532 12.7377L12.2706 13.1849L17.1006 16.8149L13.2831 13.1849L12.6563 11.4509L10.4513 6.08055C10.4513 6.08055 8.75705 3.08071 8.72205 3.04709C8.76977 3.05335 12.6563 3.03302 12.6563 3.03302L13.3659 5.91793L14.9306 11.4509L15.3577 12.9481L16.873 14.7016L15.6401 12.8191L16.4459 12.4805L16.8317 14.1873L16.8667 14.7016L18.5061 16.3474Z" fill="#F58C25"/>
<path d="M6.45108 10.0826L2.92324 10.0623L2.08244 9.17498L2.61301 8.82311L1.66244 8.31493L2.47539 8.09837L1.35938 7.40802L2.02756 7.12344L2.19301 6.09378L4.04642 2.69444L6.55448 0.532715L8.71812 3.04547L10.4546 6.07268L6.45108 10.0819V10.0826Z" fill="#81491F"/>
<path d="M0.75 15.4335H6.83364L8.49455 17.6139C8.49455 17.6139 4.36057 18.8398 2.28602 19.4629C1.75546 18.0745 1.25193 16.7539 0.75 15.4335Z" fill="#E48027"/>
<path d="M17.109 6.22914L17.5982 6.78423L17.2403 7.20484L17.7358 7.55666L17.3778 8.02419L17.4606 8.76223L16.8473 9.47991L13.3672 5.91797L18.9139 1.40063L17.109 6.22914Z" fill="#81491F"/>
<path d="M17.1035 16.8149L17.1242 18.1627L15.1467 19.1447L8.49031 17.6202C8.49031 17.6202 8.4418 17.6545 8.49031 17.6202C11.2808 17.3567 17.1035 16.8149 17.1035 16.8149Z" fill="#D9C6B7"/>
<path d="M18.9124 1.40063L13.3658 5.91798L12.6562 3.03307L18.9124 1.40063Z" fill="#E48027"/>
<path d="M13.3672 5.91785L16.8401 9.47982L16.6954 11.3288L14.9318 11.4507L13.3672 5.91785Z" fill="#E57F24"/>
<path d="M8.49219 17.613L15.1477 19.1376L17.1253 18.1549L18.4831 18.0399L17.449 19.3675L14.645 19.6177L8.49219 17.613Z" fill="#C7B7AB"/>
<path d="M8.48969 17.6139L6.83594 15.4326L10.1227 14.5593L8.48969 17.6139Z" fill="#D76F21"/>
<path d="M18.4801 18.04C18.0251 18.0806 17.5773 18.1213 17.1223 18.1557L17.1016 16.8078L17.3427 16.6249L18.5072 16.3474C18.5072 16.3474 18.9001 16.6178 19.2374 16.8078C18.9693 17.241 18.7204 17.6404 18.4801 18.04Z" fill="#2A2626"/>
<path d="M14.9297 11.4509L16.694 11.3289L16.453 12.4806L15.7848 11.6948L15.64 12.8191L16.873 14.7017L15.3577 12.941L14.9305 11.4509H14.9297Z" fill="#D66F21"/>
<path d="M6.45312 10.0826L10.4566 6.07343L12.6616 11.4508L7.30823 11.6338L6.45312 10.0826Z" fill="#E47E25"/>
<path d="M8.49219 17.6139L10.1253 14.5593L17.1054 16.8149L8.49219 17.6139Z" fill="#E47F26"/>
<path d="M7.30469 11.6338L12.6581 11.4509L12.2723 13.185L11.3702 11.8168L9.75787 12.7378L7.30469 11.6338Z" fill="#D66F21"/>
<path d="M12.2734 13.185L12.6592 11.4509L13.286 13.185L17.1042 16.815C17.1042 16.815 13.3759 14.0177 12.2734 13.185Z" fill="#E47F25"/>
<path d="M12.273 13.1849L9.75781 12.7377L11.3702 11.8167L12.273 13.1849Z" fill="#32404E"/>
<path d="M9.75787 12.7376L10.123 14.5592L7.30469 11.6344L9.75787 12.7384V12.7376Z" fill="#E57F25"/>
<path d="M15.6406 12.8191L15.7854 11.6948L16.4535 12.4798L15.6406 12.8191Z" fill="#38424D"/>
<path d="M16.4531 12.4806L16.6941 11.3289L16.9487 12.5548L16.8389 14.1873L16.4531 12.4806Z" fill="#E57F24"/>
</svg>
